<svg id="Layer_1" data-name="Layer 1" xmlns="http://www.w3.org/2000/svg" viewBox="0 0 774.31 489.03"><defs><style>.cls-1{fill:#e1e1e1;}.cls-2{fill:#fafafa;}.cls-3{fill:#fff;}.cls-4{fill:#ececec;}.cls-5{fill:#f5f5f5;}.cls-6{fill:#1a2e35;}.cls-7{fill:#eb502e;}.cls-8{fill:none;stroke:#eb502e;stroke-miterlimit:10;}.cls-9{font-size:10.19px;fill:#0f1e36;stroke:#0f1e36;stroke-linecap:round;stroke-linejoin:round;stroke-width:0.99px;font-family:Roboto-Light, Roboto;font-weight:300;}.cls-10{fill:#375a64;}.cls-11{fill:#ff735d;}.cls-12{fill:#ffbf9d;}.cls-13{fill:#ff9a6c;}.cls-14{opacity:0.4;}.cls-15{opacity:0.3;}</style></defs><title>Untitled-1w34</title><rect class="cls-1" x="8.28" y="0.04" width="121.65" height="126.81"/><rect class="cls-2" x="0.04" y="0.04" width="121.65" height="126.81"/><path class="cls-1" d="M130.25,158.89H8.53V32H130.25ZM8.6,158.81H130.18V32.08H8.6Z" transform="translate(-8.53 -32)"/><rect class="cls-3" x="16.39" y="17.09" width="88.95" height="92.72"/><path class="cls-1" d="M24.92,142.42a15,15,0,0,1-2.2,2.55c-1.42,1.5-3.42,3.53-5.65,5.73s-4.3,4.17-5.81,5.57a15.21,15.21,0,0,1-2.57,2.14,13.85,13.85,0,0,1,2.18-2.54c1.42-1.5,3.42-3.54,5.67-5.75s4.3-4.18,5.82-5.57A14,14,0,0,1,24.92,142.42Z" transform="translate(-8.53 -32)"/><path class="cls-1" d="M113.86,142.19a14.36,14.36,0,0,1,2.56,2.2c1.49,1.42,3.52,3.41,5.73,5.65s4.17,4.3,5.56,5.81a14.61,14.61,0,0,1,2.14,2.57,13.85,13.85,0,0,1-2.54-2.18c-1.5-1.42-3.53-3.42-5.74-5.67s-4.18-4.3-5.58-5.82A14,14,0,0,1,113.86,142.19Z" transform="translate(-8.53 -32)"/><path class="cls-1" d="M113.62,49.33a14.58,14.58,0,0,1,2.19-2.55c1.43-1.5,3.42-3.53,5.66-5.73s4.29-4.17,5.81-5.56a13.67,13.67,0,0,1,2.57-2.14,14.26,14.26,0,0,1-2.18,2.54c-1.42,1.5-3.42,3.53-5.67,5.74s-4.3,4.18-5.82,5.57A13.35,13.35,0,0,1,113.62,49.33Z" transform="translate(-8.53 -32)"/><path class="cls-1" d="M24.67,49.56a14.58,14.58,0,0,1-2.55-2.19c-1.5-1.43-3.53-3.42-5.73-5.66s-4.17-4.29-5.56-5.81a13.67,13.67,0,0,1-2.14-2.57,14.26,14.26,0,0,1,2.54,2.18c1.5,1.42,3.53,3.42,5.74,5.67s4.18,4.3,5.57,5.82A13.35,13.35,0,0,1,24.67,49.56Z" transform="translate(-8.53 -32)"/><path class="cls-1" d="M113.62,141.8a3.82,3.82,0,0,1,0-.45c0-.31,0-.74,0-1.29,0-1.16,0-2.83,0-5,0-4.39-.05-10.78-.09-18.89,0-16.24-.1-39.38-.17-67.07l.34.34-88.69,0h0l.39-.39c0,34,0,65.86-.06,92.71l-.33-.33,64.22.17,18,.09,4.78,0,1.23,0h.43a1.57,1.57,0,0,1-.39,0l-1.2,0-4.71,0-18,.09-64.44.17h-.34v-.34c0-26.85,0-58.68-.06-92.71v-.4h.41l88.69.05H114v.35c-.07,27.79-.13,51-.17,67.29,0,8.08-.07,14.44-.09,18.82,0,2.14,0,3.79,0,4.94,0,.53,0,1,0,1.25A2.87,2.87,0,0,1,113.62,141.8Z" transform="translate(-8.53 -32)"/><rect class="cls-4" x="46.02" y="48.6" width="29.68" height="29.68"/><polygon class="cls-1" points="736.68 5.86 736.68 120.5 572.02 120.5 566.09 6.66 736.68 5.86"/><rect class="cls-3" x="600.14" y="13.13" width="113.6" height="164.65" transform="translate(552.96 720.4) rotate(-90)"/><path class="cls-1" d="M740.05,153H573.84V37.88H740.05ZM575.4,151.47H738.49v-112H575.4Z" transform="translate(-8.53 -32)"/><rect class="cls-3" x="583.92" y="20.77" width="128.99" height="85.37"/><path class="cls-1" d="M721.44,52.77s-.23,0-.64,0l-1.83,0-7.09,0L685.3,53l-92.85.18.37-.37c0,26.08,0,55,0,85.36h0l-.41-.41,129,.09-.33.32c.07-26,.13-47.28.17-62.11,0-7.42.07-13.21.08-17.18,0-2,0-3.47,0-4.51s0-1.57,0-1.57,0,.5,0,1.5,0,2.52,0,4.45c0,4,0,9.72.08,17.1,0,14.89.1,36.26.17,62.32v.32h-.32l-129,.09H592v-.41h0c0-30.38,0-59.28,0-85.36V52.4h.37l93.1.18,26.49.1,7,0,1.79,0Z" transform="translate(-8.53 -32)"/><path class="cls-1" d="M574.62,38.34a14.14,14.14,0,0,1,2.83,1.83c1.68,1.22,4,2.94,6.45,4.92s4.66,3.86,6.19,5.27a13.7,13.7,0,0,1,2.36,2.41c-.15.17-4.11-3.09-9.06-7S574.47,38.52,574.62,38.34Z" transform="translate(-8.53 -32)"/><path class="cls-1" d="M739.27,38.66c.14.17-3.74,3.48-8.66,7.37s-9,6.92-9.17,6.74,3.74-3.48,8.66-7.38S739.13,38.48,739.27,38.66Z" transform="translate(-8.53 -32)"/><path class="cls-3" d="M739.14,152.27l-18.36-14.88" transform="translate(-8.53 -32)"/><path class="cls-1" d="M720.78,137.39c.14-.17,4.37,3,9.44,7.12s9.06,7.59,8.92,7.76-4.37-3-9.44-7.12S720.64,137.56,720.78,137.39Z" transform="translate(-8.53 -32)"/><path class="cls-1" d="M574.62,152.25c-.14-.17,3.7-3.44,8.57-7.3s8.94-6.83,9.08-6.66-3.7,3.45-8.58,7.3S574.76,152.43,574.62,152.25Z" transform="translate(-8.53 -32)"/><rect class="cls-5" x="644.93" y="53.08" width="28.58" height="81.16" transform="translate(557.03 720.88) rotate(-90)"/><polygon class="cls-5" points="147.5 405.92 147.5 460.51 227.34 460.51 315.4 460.51 315.4 405.92 147.5 405.92"/><polygon class="cls-1" points="140.45 390.65 140.45 405.92 321.27 405.92 321.27 390.65 227.34 390.65 140.45 390.65"/><polygon class="cls-1" points="230.86 460.51 315.4 460.51 315.4 405.92 321.27 405.92 321.27 390.65 227.34 390.65 227.34 404.5 230.86 460.51"/><rect class="cls-1" x="170.98" y="414.72" width="34.05" height="8.22"/><rect class="cls-3" x="166.6" y="433.21" width="43.72" height="17.36"/><polygon class="cls-5" points="656.04 307.54 617.45 463.57 627.61 463.57 667.15 307.54 656.04 307.54"/><polygon class="cls-5" points="728.73 307.54 764.84 463.57 754.68 463.57 717.62 307.54 728.73 307.54"/><polygon class="cls-5" points="698.56 461.28 686.73 461.28 684.97 282.19 696.8 282.19 698.56 461.28"/><rect class="cls-4" x="607.46" y="177.01" width="166.86" height="106.9"/><rect class="cls-5" x="649.06" y="305.9" width="83.75" height="10.32"/><path class="cls-5" d="M627.07,302a11,11,0,0,1,.11,1.95H627c-.18-5.22-.3-22.54-.3-43.07.05-12.39.09-23.6.12-31.85.05-4,.1-7.26.13-9.65,0-1.06.06-1.93.08-2.62a3.53,3.53,0,0,1,.08-.92,3.53,3.53,0,0,1,.08.92c0,.69.05,1.56.08,2.62,0,2.39.08,5.66.13,9.65,0,8.25.07,19.46.12,31.85,0,20.53-.12,37.85-.3,43.07H627A11,11,0,0,1,627.07,302Z" transform="translate(-8.53 -32)"/><path class="cls-5" d="M639.49,302a11,11,0,0,1,.11,1.95h-.23c-.17-5.22-.29-22.54-.29-43.07,0-12.39.09-23.6.12-31.85,0-4,.1-7.26.13-9.65,0-1.06,0-1.93.08-2.62a3.53,3.53,0,0,1,.08-.92,4.2,4.2,0,0,1,.08.92c0,.69,0,1.56.08,2.62,0,2.39.07,5.66.13,9.65,0,8.25.07,19.46.12,31.85,0,20.53-.13,37.85-.3,43.07h-.23A11.41,11.41,0,0,1,639.49,302Z" transform="translate(-8.53 -32)"/><path class="cls-5" d="M651.91,302a12.43,12.43,0,0,1,.11,1.95h-.23c-.17-5.22-.29-22.54-.29-43.07,0-12.39.08-23.6.12-31.85,0-4,.09-7.26.13-9.65,0-1.06,0-1.93.07-2.62a3.75,3.75,0,0,1,.09-.92,4.2,4.2,0,0,1,.08.92c0,.69,0,1.56.08,2.62,0,2.39.07,5.66.13,9.65,0,8.25.07,19.46.12,31.85,0,20.53-.13,37.85-.3,43.07h-.23A11.41,11.41,0,0,1,651.91,302Z" transform="translate(-8.53 -32)"/><path class="cls-5" d="M664.33,302a12.43,12.43,0,0,1,.11,1.95h-.23c-.17-5.22-.3-22.54-.3-43.07.05-12.39.09-23.6.12-31.85.06-4,.1-7.26.14-9.65,0-1.06.05-1.93.07-2.62a3.75,3.75,0,0,1,.09-.92,5.18,5.18,0,0,1,.08.92c0,.69,0,1.56.08,2.62,0,2.39.07,5.66.13,9.65,0,8.25.07,19.46.12,31.85,0,20.53-.13,37.85-.3,43.07h-.23A11.41,11.41,0,0,1,664.33,302Z" transform="translate(-8.53 -32)"/><path class="cls-5" d="M676.74,302a11.41,11.41,0,0,1,.12,1.95h-.23c-.17-5.22-.3-22.54-.3-43.07,0-12.39.09-23.6.12-31.85.06-4,.1-7.26.13-9.65,0-1.06.06-1.93.08-2.62a5.18,5.18,0,0,1,.08-.92,3.75,3.75,0,0,1,.09.92c0,.69,0,1.56.07,2.62,0,2.39.08,5.66.13,9.65,0,8.25.08,19.46.13,31.85,0,20.53-.13,37.85-.3,43.07h-.23A12.43,12.43,0,0,1,676.74,302Z" transform="translate(-8.53 -32)"/><path class="cls-5" d="M689.16,302a11.41,11.41,0,0,1,.12,1.95h-.23c-.17-5.22-.3-22.54-.3-43.07,0-12.39.09-23.6.12-31.85.06-4,.1-7.26.13-9.65,0-1.06.06-1.93.08-2.62a4.2,4.2,0,0,1,.08-.92,3.75,3.75,0,0,1,.09.92c0,.69,0,1.56.07,2.62,0,2.39.08,5.66.13,9.65,0,8.25.08,19.46.12,31.85,0,20.53-.12,37.85-.29,43.07h-.23A11,11,0,0,1,689.16,302Z" transform="translate(-8.53 -32)"/><path class="cls-5" d="M701.58,302a11.41,11.41,0,0,1,.12,1.95h-.23c-.17-5.22-.3-22.54-.3-43.07.05-12.39.09-23.6.12-31.85.05-4,.1-7.26.13-9.65,0-1.06.06-1.93.08-2.62a4.2,4.2,0,0,1,.08-.92,3.53,3.53,0,0,1,.08.92c0,.69.05,1.56.08,2.62,0,2.39.08,5.66.13,9.65,0,8.25.08,19.46.12,31.85,0,20.53-.12,37.85-.29,43.07h-.23A11,11,0,0,1,701.58,302Z" transform="translate(-8.53 -32)"/><path class="cls-5" d="M714,302a11,11,0,0,1,.11,1.95h-.22c-.18-5.22-.3-22.54-.3-43.07,0-12.39.09-23.6.12-31.85,0-4,.1-7.26.13-9.65,0-1.06.06-1.93.08-2.62a.46.46,0,1,1,.16,0c0,.69,0,1.56.08,2.62,0,2.39.08,5.66.13,9.65,0,8.25.07,19.46.12,31.85,0,20.53-.12,37.85-.3,43.07h-.22A11,11,0,0,1,714,302Z" transform="translate(-8.53 -32)"/><path class="cls-5" d="M726.42,302a11,11,0,0,1,.11,1.95h-.23c-.17-5.22-.29-22.54-.29-43.07,0-12.39.09-23.6.12-31.85,0-4,.1-7.26.13-9.65,0-1.06.06-1.93.08-2.62a3.53,3.53,0,0,1,.08-.92,4.2,4.2,0,0,1,.08.92c0,.69,0,1.56.08,2.62,0,2.39.08,5.66.13,9.65,0,8.25.07,19.46.12,31.85,0,20.53-.13,37.85-.3,43.07h-.23A11.41,11.41,0,0,1,726.42,302Z" transform="translate(-8.53 -32)"/><path class="cls-5" d="M738.84,302a11,11,0,0,1,.11,1.95h-.23c-.17-5.22-.29-22.54-.29-43.07,0-12.39.09-23.6.12-31.85.05-4,.09-7.26.13-9.65,0-1.06.05-1.93.07-2.62a3.75,3.75,0,0,1,.09-.92,4.2,4.2,0,0,1,.08.92c0,.69.05,1.56.08,2.62,0,2.39.07,5.66.13,9.65,0,8.25.07,19.46.12,31.85,0,20.53-.13,37.85-.3,43.07h-.23A11.41,11.41,0,0,1,738.84,302Z" transform="translate(-8.53 -32)"/><path class="cls-5" d="M751.26,302a12.43,12.43,0,0,1,.11,1.95h-.23c-.17-5.22-.3-22.54-.3-43.07,0-12.39.09-23.6.13-31.85,0-4,.09-7.26.13-9.65,0-1.06,0-1.93.07-2.62a3.75,3.75,0,0,1,.09-.92,5.18,5.18,0,0,1,.08.92c0,.69,0,1.56.08,2.62,0,2.39.07,5.66.13,9.65,0,8.25.07,19.46.12,31.85,0,20.53-.13,37.85-.3,43.07h-.23A11.41,11.41,0,0,1,751.26,302Z" transform="translate(-8.53 -32)"/><path class="cls-5" d="M763.67,302a11.41,11.41,0,0,1,.12,1.95h-.23c-.17-5.22-.3-22.54-.3-43.07,0-12.39.09-23.6.12-31.85.06-4,.1-7.26.13-9.65,0-1.06.06-1.93.08-2.62a5.18,5.18,0,0,1,.08-.92,3.75,3.75,0,0,1,.09.92c0,.69,0,1.56.07,2.62,0,2.39.08,5.66.14,9.65,0,8.25.07,19.46.12,31.85,0,20.53-.13,37.85-.3,43.07h-.23A12.43,12.43,0,0,1,763.67,302Z" transform="translate(-8.53 -32)"/><path class="cls-5" d="M776.09,302a11.41,11.41,0,0,1,.12,1.95H776c-.17-5.22-.3-22.54-.3-43.07.05-12.39.09-23.6.12-31.85.06-4,.1-7.26.13-9.65,0-1.06.06-1.93.08-2.62a4.2,4.2,0,0,1,.08-.92,3.75,3.75,0,0,1,.09.92c0,.69,0,1.56.07,2.62,0,2.39.08,5.66.13,9.65,0,8.25.08,19.46.12,31.85,0,20.53-.12,37.85-.29,43.07H776A12.43,12.43,0,0,1,776.09,302Z" transform="translate(-8.53 -32)"/><path class="cls-6" d="M747.47,492.51c0,.17-160.9.3-359.34.3s-359.37-.13-359.37-.3,160.87-.29,359.37-.29S747.47,492.35,747.47,492.51Z" transform="translate(-8.53 -32)"/><rect class="cls-3" x="83.97" y="72.72" width="543.22" height="269.89"/><rect class="cls-1" x="83.97" y="72.72" width="543.22" height="33.48"/><path class="cls-6" d="M635.72,374.62c0-1.74-.08-103.46-.22-269.9l.22.22L92.54,105h0l.29-.3c0,95.13,0,186.44,0,269.9l-.28-.28,543.22.28-543.22.27h-.28v-.27c0-83.46,0-174.77,0-269.9v-.29h.34l543.18.07h.22v.22C635.8,271.16,635.72,372.88,635.72,374.62Z" transform="translate(-8.53 -32)"/><circle class="cls-3" cx="103.85" cy="88.15" r="5.39"/><circle class="cls-3" cx="123.71" cy="88.15" r="5.39"/><circle class="cls-3" cx="143.56" cy="88.15" r="5.39"/><path class="cls-3" d="M486.6,242.21h-245a15.32,15.32,0,0,1-15.32-15.32h0a15.32,15.32,0,0,1,15.32-15.32h245a15.32,15.32,0,0,1,15.32,15.32h0A15.32,15.32,0,0,1,486.6,242.21Z" transform="translate(-8.53 -32)"/><path class="cls-7" d="M486.6,211.57H431a15.32,15.32,0,0,1,0,30.64h55.6a15.32,15.32,0,0,0,0-30.64Z" transform="translate(-8.53 -32)"/><path class="cls-8" d="M486.6,242.21h-245a15.32,15.32,0,0,1-15.32-15.32h0a15.32,15.32,0,0,1,15.32-15.32h245a15.32,15.32,0,0,1,15.32,15.32h0A15.32,15.32,0,0,1,486.6,242.21Z" transform="translate(-8.53 -32)"/><path class="cls-3" d="M479.6,232.85l-3.32-3.32a7.56,7.56,0,1,0-2.28,2.28l3.32,3.33a1.62,1.62,0,1,0,2.28-2.29Zm-13.15-3.92a4.91,4.91,0,1,1,6.95,0A4.91,4.91,0,0,1,466.45,228.93Z" transform="translate(-8.53 -32)"/><text class="cls-9" transform="translate(231.96 197.87)">https://example.com/my-long-url</text><path class="cls-10" d="M96.85,366.38c7-3.63,15.3-4.1,23.1-2.81,4.2.69,8.56,1.95,11.42,5.09s3.39,8.69.11,11.4c-1.95,1.61-4.66,1.85-7.19,1.82-6.11-.07-12.88-1.14-17.76,2.53-2.79,2.1-4.64,5.58-8,6.61s-6.93-.91-8.65-3.85-1.79-6.61-1-9.92A15.16,15.16,0,0,1,96.85,366.38Z" transform="translate(-8.53 -32)"/><path class="cls-10" d="M80.76,335.3c4.29,6.14,12.64,4.11,16.52.36s5.5-9.17,7-14.35c3.41-11.83,6.84-24.24,4.31-36.28a20.22,20.22,0,0,0-4.64-9.87c-2.53-2.67-6.42-4.26-10-3.32-4.21,1.11-6.82,5.24-8.71,9.16a86.45,86.45,0,0,0-8.55,37.12c0,6,.68,12.25,4.06,17.18" transform="translate(-8.53 -32)"/><path class="cls-10" d="M69,344.11c4.66-5.54,5.55-13.62,3.47-20.55s-6.76-12.84-12.17-17.66a65.43,65.43,0,0,0-21.79-12.85,23.17,23.17,0,0,0-9.8-1.67c-3.33.32-6.68,2-8.23,5-2.29,4.37-.09,9.68,2.29,14A166.26,166.26,0,0,0,37,332.16c4.29,5.53,9.21,11,15.74,13.49s13.33,2.21,16.8-2.33" transform="translate(-8.53 -32)"/><path class="cls-6" d="M80.47,427.87a13.3,13.3,0,0,0,.38-2.79c.2-2,.45-4.58.74-7.61a111.67,111.67,0,0,1,1.72-11.16,85.68,85.68,0,0,1,4-13.18,48.82,48.82,0,0,1,6.73-11.92,25.12,25.12,0,0,1,8.51-7.07,24,24,0,0,1,7.16-2.23,13,13,0,0,0,2.77-.4,13,13,0,0,0-2.82,0,21.77,21.77,0,0,0-7.47,1.94,25.12,25.12,0,0,0-9,7.13,47.36,47.36,0,0,0-7,12.16,79.24,79.24,0,0,0-4,13.39,94.83,94.83,0,0,0-1.49,11.31c-.24,3.23-.33,5.84-.37,7.65A13,13,0,0,0,80.47,427.87Z" transform="translate(-8.53 -32)"/><path class="cls-6" d="M81,422a5.57,5.57,0,0,0,.07-1.29c0-1,0-2.2,0-3.7,0-3.21,0-7.86.17-13.6.28-11.47,1.27-23.82,3.18-41.24,1.81-16.37,4.23-35.42,6.79-47.81.55-2.82,1.1-5.35,1.63-7.57s.92-4.15,1.32-5.7.64-2.65.87-3.6a5.41,5.41,0,0,0,.22-1.27,5.72,5.72,0,0,0-.44,1.21c-.29.93-.64,2.1-1.08,3.55s-1,3.44-1.52,5.66S91,311.39,90.4,314.2a415.85,415.85,0,0,0-7.14,44.37c-1.92,17.45-2.78,33.33-2.85,44.84-.07,5.75,0,10.41.2,13.62.09,1.5.16,2.73.22,3.7A5.58,5.58,0,0,0,81,422Z" transform="translate(-8.53 -32)"/><path class="cls-6" d="M81.07,391.37a25.34,25.34,0,0,0,0-3.86c-.14-2.49-.48-6.08-1.18-10.48a139.9,139.9,0,0,0-3.41-15.25,124.84,124.84,0,0,0-6.38-18c-5.29-12.56-12.48-22.82-18.74-29.18a48,48,0,0,0-4.4-4.09c-.68-.58-1.28-1.15-1.89-1.6l-1.71-1.18a24.65,24.65,0,0,0-3.25-2.08c-.18.25,4.61,3.07,10.67,9.51s13,16.62,18.26,29.07a142.74,142.74,0,0,1,6.42,17.89c1.67,5.6,2.78,10.76,3.62,15.1s1.26,7.91,1.54,10.37A24.2,24.2,0,0,0,81.07,391.37Z" transform="translate(-8.53 -32)"/><polygon class="cls-11" points="42.92 413.42 52.06 460.03 95.2 460.03 103.11 413.42 42.92 413.42"/><rect class="cls-11" x="37.7" y="396.84" width="71.85" height="16.58"/><path class="cls-3" d="M109.42,459.17s-.07.14-.24.39l-.77,1.07-3,4-.13.18-.13-.19c-1.9-2.74-4.44-6.39-7.42-10.7h.42l-7.31,10.78-.23.34-.25-.32L81.66,454h.5l-.48.63-7.75,10.12-.26.34-.24-.35L66.12,454l.42,0c-3.6,4.28-6.66,7.9-9,10.69l-.17.19-.12-.21c-1.18-2.08-2.13-3.74-2.82-4.94-.29-.54-.53-1-.72-1.31a1.88,1.88,0,0,1-.22-.47,2.48,2.48,0,0,1,.3.41l.8,1.27c.72,1.18,1.72,2.8,3,4.84l-.28,0,8.86-10.82.23-.27.2.29,7.38,10.73h-.5l7.73-10.14c.17-.21.33-.43.48-.63l.25-.32.25.32,8.65,10.76-.49,0,7.39-10.72.21-.32.21.32,7.27,10.81h-.26l3.14-3.93.84-1A2,2,0,0,1,109.42,459.17Z" transform="translate(-8.53 -32)"/><path class="cls-6" d="M112.38,445.15c0,.18-13.54.33-30.24.33s-30.24-.15-30.24-.33,13.54-.34,30.24-.34S112.38,445,112.38,445.15Z" transform="translate(-8.53 -32)"/><path class="cls-12" d="M513.23,302.28,522,311.7s36.68,61.51,41.92,65.46,14,8.5,19.24,7.8,19.18-10.15,19.18-10.15l-12.16-37.38-13.85-3.79L539,290.34Z" transform="translate(-8.53 -32)"/><path class="cls-12" d="M520.25,309.7c-3.12-3.75-11.15-11.47-11.15-11.47l-3.39-3.61a5.81,5.81,0,0,0-.37.93,3.83,3.83,0,0,1-.86,1.66c-.88.81-2.31.54-3.35,0a7.07,7.07,0,0,1-.25-12.19,5.38,5.38,0,0,1,.93-1.83c2.87-3.69,9.61-3.19,9.61-3.19l-1-1.43s-4.59-2.86-12.22,2a5.55,5.55,0,0,1-3.84.84,2.82,2.82,0,0,1-2.06-1.25c-1.11-1.89-.06-3.17,4.66-6.26s10.3-4.49,13.84-3.18a37.58,37.58,0,0,1,4.84,2s-8.34-13.45-8.83-14.32c-1.43-2.52-1.49-5.28.1-6.4,1-.72,2.83-.87,4.58,2,1.52,2.5,20.3,26.12,20.3,26.12l7.7,10.94Z" transform="translate(-8.53 -32)"/><path class="cls-12" d="M536.69,291.49c-1.18,1.25-3.26,1.09-4.79.31s-2.74-2.08-4.21-3c-4.39-2.68-10.38-1.59-14.64-4.47-.59-.41-1.19-1.09-.93-1.75s1.06-.74,1.72-.77l17-.7" transform="translate(-8.53 -32)"/><path class="cls-13" d="M530.85,281.14A6.75,6.75,0,0,0,529,281c-1.19,0-2.91,0-5,.05l-7.44.2-2.16.07a3.4,3.4,0,0,0-2.46.68,1.47,1.47,0,0,0-.17,1.61,3,3,0,0,0,.92,1,11.22,11.22,0,0,0,2.22,1.17c3.16,1.22,6.31,1.28,9,1.95a13.06,13.06,0,0,1,3.59,1.35c1,.61,1.91,1.38,2.79,2a6,6,0,0,0,4.89,1.38c1.24-.32,1.61-1,1.56-1a4.69,4.69,0,0,1-1.63.66,5.8,5.8,0,0,1-4.41-1.56c-.83-.63-1.68-1.43-2.78-2.12a13,13,0,0,0-3.8-1.54c-2.76-.74-5.9-.84-8.82-2a10.35,10.35,0,0,1-2-1.05c-.57-.41-.88-1-.6-1.24s1.05-.36,1.78-.38l2.15-.1,7.44-.41c2.12-.14,3.83-.26,5-.37A6.41,6.41,0,0,0,530.85,281.14Z" transform="translate(-8.53 -32)"/><path class="cls-13" d="M511.64,279.92a7,7,0,0,0-2.47-2.06,5.47,5.47,0,0,0-3.39-.28,14,14,0,0,0-4,1.7,21.73,21.73,0,0,1-4,2,7.21,7.21,0,0,1-3.7.31,2.79,2.79,0,0,1-2-1.54,1.63,1.63,0,0,1-.2-.89c.06,0,.13.3.41.78a2.63,2.63,0,0,0,1.86,1.21,7,7,0,0,0,3.42-.42,23.94,23.94,0,0,0,3.89-2,13.43,13.43,0,0,1,4.17-1.71,5.63,5.63,0,0,1,3.69.44,5.11,5.11,0,0,1,1.89,1.63C511.58,279.59,511.67,279.9,511.64,279.92Z" transform="translate(-8.53 -32)"/><path class="cls-13" d="M506.27,257.41a18.72,18.72,0,0,1,1.67,2.66c1.1,1.86,2.41,4.07,3.87,6.51s2.83,4.62,4,6.46a17.58,17.58,0,0,1,1.58,2.72,14.43,14.43,0,0,1-2-2.48c-1.12-1.59-2.6-3.83-4.13-6.37s-2.84-4.89-3.72-6.62A13.73,13.73,0,0,1,506.27,257.41Z" transform="translate(-8.53 -32)"/><path class="cls-13" d="M510.44,284.82a3.62,3.62,0,0,1-1,.17,2.94,2.94,0,0,0-2.13,1.17,1.55,1.55,0,0,0,0,1.55,8.54,8.54,0,0,0,1.19,1.67,3.5,3.5,0,0,1,1,2.31,3,3,0,0,1-1.41,2.32,3.39,3.39,0,0,1-2.67.37,4.3,4.3,0,0,1-2.15-1.27,14.33,14.33,0,0,1-2.05-3.49,8.24,8.24,0,0,1-.66-2.64,1.79,1.79,0,0,1,.15-1c.05,0,0,.36.09,1a9.66,9.66,0,0,0,.83,2.49,14.71,14.71,0,0,0,2.07,3.28,3.38,3.38,0,0,0,4.05.76,2.4,2.4,0,0,0,1.13-1.82,3,3,0,0,0-.81-1.93,8.73,8.73,0,0,1-1.21-1.82,2,2,0,0,1,.12-2,3.09,3.09,0,0,1,2.49-1.17A2.44,2.44,0,0,1,510.44,284.82Z" transform="translate(-8.53 -32)"/><path class="cls-13" d="M505.37,293.84s.27.22.39.8A2.75,2.75,0,0,1,505,297a3.65,3.65,0,0,1-3.51.88,6,6,0,0,1-3.49-2.75,7.32,7.32,0,0,1-1-4.31,6.91,6.91,0,0,1,1.24-3.4A6.65,6.65,0,0,1,500,285.7a2,2,0,0,1,.8-.38,11.78,11.78,0,0,0-2.15,2.33,6.72,6.72,0,0,0,0,7.14,5.5,5.5,0,0,0,3.1,2.52,3.22,3.22,0,0,0,3.05-.64,2.59,2.59,0,0,0,.8-2C505.48,294.14,505.32,293.86,505.37,293.84Z" transform="translate(-8.53 -32)"/><path class="cls-13" d="M520.17,297.21s.39-.45,1.3-.77a5.88,5.88,0,0,1,3.85,0l-.37.41a18.33,18.33,0,0,1-.8-2c-1.33-4-.8-7.38-.65-7.33s0,3.33,1.25,7.14c.22.68.48,1.33.74,1.93l.29.65-.66-.25a6.19,6.19,0,0,0-3.54-.19C520.7,297,520.21,297.28,520.17,297.21Z" transform="translate(-8.53 -32)"/><path class="cls-13" d="M505.92,274.36c.17,0,.23,1.27-.64,2.5s-2.11,1.61-2.15,1.45.89-.73,1.63-1.81S505.74,274.34,505.92,274.36Z" transform="translate(-8.53 -32)"/><path class="cls-10" d="M491.38,490s-14.77,3.19-27.95,1.22c-12.36-1.86-40,.06-40,16.35,0,18.16,36.9,13.67,51.3,10.79s28.73-5.49,28.73-5.49Z" transform="translate(-8.53 -32)"/><path class="cls-6" d="M458.24,513.25c-.19,0-1-2.79-1.78-6.32s-1.29-6.43-1.09-6.48,1,2.79,1.78,6.33S458.43,513.21,458.24,513.25Z" transform="translate(-8.53 -32)"/><path class="cls-6" d="M463.28,513.49c-.2,0-.75-2.87-1.25-6.48s-.74-6.55-.54-6.58.75,2.88,1.24,6.48S463.47,513.46,463.28,513.49Z" transform="translate(-8.53 -32)"/><path class="cls-6" d="M468.14,511.59c-.19,0-.66-2.51-1-5.66s-.53-5.73-.34-5.75.66,2.51,1,5.66S468.33,511.57,468.14,511.59Z" transform="translate(-8.53 -32)"/><path class="cls-6" d="M475.78,509.69c-.17.07-1.22-2.05-1.9-4.87s-.73-5.18-.54-5.19.55,2.27,1.23,5S476,509.61,475.78,509.69Z" transform="translate(-8.53 -32)"/><path class="cls-6" d="M477.41,503.05a6.27,6.27,0,0,1,1.93-.13,16.41,16.41,0,0,1,5.19,1,5.9,5.9,0,0,1,1.59.86,2.42,2.42,0,0,1,1,1.8,2.73,2.73,0,0,1-3.34,2.43,7,7,0,0,1-3.86-2.74,12,12,0,0,1-2.18-4.54,11.55,11.55,0,0,1,1.63-9.41,1.88,1.88,0,0,1,1.1-.66,1.51,1.51,0,0,1,1.22.38,3.31,3.31,0,0,1,.93,2,9.93,9.93,0,0,1-.2,3.69,10.25,10.25,0,0,1-2.49,4.66,7.54,7.54,0,0,1-1.08.95c-.27.19-.41.28-.43.26s.52-.46,1.31-1.39a10.71,10.71,0,0,0,2.2-4.59,9.89,9.89,0,0,0,.11-3.5,2.8,2.8,0,0,0-.76-1.6,1,1,0,0,0-1.42.24,11.51,11.51,0,0,0,.61,13.09,6.27,6.27,0,0,0,3.42,2.53,2.13,2.13,0,0,0,2.64-1.77,1.88,1.88,0,0,0-.75-1.4,5.65,5.65,0,0,0-1.43-.81,18.3,18.3,0,0,0-5-1.21C478.1,503.08,477.42,503.1,477.41,503.05Z" transform="translate(-8.53 -32)"/><path class="cls-6" d="M502,510.45l-.37.12-1.11.28-4.28,1c-3.73.82-9.13,2-15.84,3.27s-14.73,2.75-23.71,4a64,64,0,0,1-14.25.71,30.61,30.61,0,0,1-7.47-1.43,20.69,20.69,0,0,1-3.58-1.59,11.08,11.08,0,0,1-3.14-2.53l.05.06a7.77,7.77,0,0,1-1.28-1.54,9.59,9.59,0,0,1-.75-7.95,12.63,12.63,0,0,1,4.73-6.19,23.87,23.87,0,0,1,6.73-3.33c1.17-.34,2.32-.74,3.49-1s2.32-.54,3.47-.7c9.25-1.46,17.67-.72,24.66-.72,3.51.07,6.67,0,9.45-.2a63.46,63.46,0,0,0,7.07-.89l2.54-.54,1.84-.52,1.13-.31c.26-.07.39-.1.39-.08a1.68,1.68,0,0,1-.37.15l-1.11.38-1.82.59-2.55.6a60.5,60.5,0,0,1-7.09,1c-2.79.21-6,.34-9.48.3-7,.06-15.42-.62-24.55.86-1.14.16-2.27.48-3.42.71s-2.28.67-3.44,1a23.46,23.46,0,0,0-6.53,3.25,12,12,0,0,0-4.47,5.84,8.91,8.91,0,0,0,.68,7.36,6.55,6.55,0,0,0,1.15,1.39l0,0,0,0a10.64,10.64,0,0,0,2.92,2.33,19.73,19.73,0,0,0,3.45,1.54,30.38,30.38,0,0,0,7.3,1.4,64.15,64.15,0,0,0,14.1-.66c9-1.19,17-2.61,23.71-3.83s12.13-2.31,15.87-3l4.31-.85,1.12-.21A2.12,2.12,0,0,1,502,510.45Z" transform="translate(-8.53 -32)"/><path class="cls-6" d="M448,519.2a24.43,24.43,0,0,1-.35-3.77c-.17-2.33-.45-5.54-.92-9.07s-1.05-6.7-1.5-9a24.76,24.76,0,0,1-.65-3.73,17,17,0,0,1,1.14,3.62,84.89,84.89,0,0,1,1.71,9,80.62,80.62,0,0,1,.72,9.13A17.1,17.1,0,0,1,448,519.2Z" transform="translate(-8.53 -32)"/><g class="cls-14"><polygon points="478.31 458.77 487.66 482.2 494.92 480.86 481.02 457.98 478.31 458.77"/></g><path class="cls-11" d="M581.74,436.1l22-49L591,345a55.07,55.07,0,0,1,2.54-38.63L615,264.81,634.13,258l44.94-6c.8.27,3,.4,16.36,4.83a49.11,49.11,0,0,1,26.7,21.46h0L685.82,384.17s24.62,53.88,21.54,78.58Z" transform="translate(-8.53 -32)"/><path class="cls-11" d="M618.58,263.72s-25.14,5.56-34.31,39.86L573,340.11l20.63,1.27Z" transform="translate(-8.53 -32)"/><path class="cls-6" d="M591.76,342.57a1.84,1.84,0,0,1-.23-.51c-.12-.34-.34-.84-.54-1.51a27.23,27.23,0,0,1-1.07-5.79,38.58,38.58,0,0,1,3.87-18.88,53.17,53.17,0,0,1,2.66-4.86c.9-1.54,1.77-3,2.55-4.46a46.91,46.91,0,0,0,3.45-7.93c.78-2.35,1.34-4.28,1.74-5.6.2-.62.35-1.12.48-1.52a1.74,1.74,0,0,1,.2-.52,2.31,2.31,0,0,1-.1.55c-.1.41-.23.92-.38,1.55-.35,1.34-.85,3.28-1.59,5.65a44.23,44.23,0,0,1-3.38,8.05c-.77,1.45-1.63,2.95-2.53,4.49a53.84,53.84,0,0,0-2.63,4.82,39.66,39.66,0,0,0-4,18.64,31,31,0,0,0,.89,5.76C591.56,341.82,591.8,342.55,591.76,342.57Z" transform="translate(-8.53 -32)"/><path class="cls-10" d="M529.36,456.21c-.11.15-11.9-8.44-26.33-19.2s-26-19.62-25.91-19.77,11.9,8.44,26.33,19.2S529.48,456.05,529.36,456.21Z" transform="translate(-8.53 -32)"/><path class="cls-6" d="M705.32,457.83,669.65,428.5h0a44.11,44.11,0,0,0-47.4-36h0a44.11,44.11,0,0,0-24,9.82L577.6,418.49c-32.15-8.77-81-22.47-106.13-29.53a37.14,37.14,0,0,0-30.23,4.57l-.47.31a37.13,37.13,0,0,0-16,39.6h0a37.08,37.08,0,0,0,16.76,23.24c12.69,7.78,32.33,19.76,49.22,29.86l-2.24,1.76,14.93,24.55,30.73-9.47c20.77-3,64.64-8.67,64.64-8.67l-12.55-7.39,2.87-.89c23.89,20.35,53.1,29.72,89.26,13.94C696.25,492,707.39,471.9,705.32,457.83Z" transform="translate(-8.53 -32)"/><path class="cls-10" d="M644.2,454.55s-.09.11-.29.28l-.9.73-3.49,2.79-2.54,2c-.93.73-2,1.41-3.15,2.21l-3.64,2.5c-.65.44-1.31.9-2,1.35L626,467.73c-3,1.78-6.2,3.82-9.85,5.67-1.81.94-3.66,2-5.61,2.94l-6.06,2.88c-8.36,3.8-17.72,7.64-27.75,11-20,6.91-38.58,11.88-51.85,15.9-3.33,1-6.33,1.9-9,2.73s-4.9,1.51-6.74,2.14L505,512.42l-1.12.34c-.25.07-.38.11-.38.09a2,2,0,0,1,.36-.16l1.09-.41,4.21-1.5c1.82-.67,4.08-1.41,6.7-2.26s5.61-1.82,8.93-2.83c13.25-4.14,31.76-9.19,51.77-16.09,10-3.41,19.36-7.21,27.71-11l6.06-2.84c2-.95,3.79-2,5.6-2.9,3.66-1.82,6.88-3.82,9.87-5.57l2.18-1.29c.7-.44,1.36-.9,2-1.33l3.67-2.45c1.13-.77,2.23-1.44,3.17-2.16l2.57-1.95,3.57-2.68.94-.68Z" transform="translate(-8.53 -32)"/><path class="cls-10" d="M646.86,466a5,5,0,0,1-1.11.58c-.73.33-1.8.77-3.14,1.27a80.34,80.34,0,0,1-21.86,4.69c-1.43.1-2.59.14-3.39.14a4,4,0,0,1-1.25-.08,43.37,43.37,0,0,1,4.59-.55c2.84-.32,6.74-.87,11-1.78s8-2,10.75-2.9A39.41,39.41,0,0,1,646.86,466Z" transform="translate(-8.53 -32)"/><path class="cls-10" d="M593.89,406.41c.12.15-23.38,18.61-52.47,41.22s-52.78,40.82-52.9,40.67,23.37-18.61,52.47-41.23S593.77,406.25,593.89,406.41Z" transform="translate(-8.53 -32)"/><path class="cls-10" d="M678.36,485.62a2.67,2.67,0,0,1-.07-.76q0-.89-.06-2.19c0-1.9-.1-4.65-.27-8a193.48,193.48,0,0,0-9.73-52c-1.07-3.22-2-5.81-2.66-7.59l-.74-2.06a3.36,3.36,0,0,1-.21-.74,2.49,2.49,0,0,1,.36.68l.87,2c.76,1.74,1.76,4.31,2.91,7.52a173,173,0,0,1,9.76,52.14c.09,3.4.09,6.16,0,8.06,0,.88-.07,1.6-.09,2.19A2.55,2.55,0,0,1,678.36,485.62Z" transform="translate(-8.53 -32)"/><path class="cls-10" d="M587.76,485.25a1.62,1.62,0,0,1,.31.23l.84.71c.74.62,1.77,1.62,3.2,2.78a85.69,85.69,0,0,0,12.9,8.67,84.51,84.51,0,0,0,21.51,8.09c1.05.28,2.13.47,3.23.66s2.19.41,3.31.58c2.26.24,4.56.62,6.92.68a77.84,77.84,0,0,0,14.57-.44l3.7-.51,3.6-.74a67.79,67.79,0,0,0,19.37-7.33,49.86,49.86,0,0,0,16.84-15.38,42.39,42.39,0,0,0,6.21-14.13A41,41,0,0,0,705,465c.06-.44.1-.8.13-1.09s.06-.37.08-.37a1.83,1.83,0,0,1,0,.38c0,.29,0,.65-.05,1.1a34.51,34.51,0,0,1-.59,4.21,41.39,41.39,0,0,1-6.05,14.38,49.67,49.67,0,0,1-16.94,15.7A66.55,66.55,0,0,1,669,504.83a65.14,65.14,0,0,1-7,1.9l-3.64.74-3.73.52a76.92,76.92,0,0,1-14.72.43c-2.38-.07-4.7-.46-7-.71-1.14-.17-2.25-.4-3.35-.59s-2.19-.39-3.25-.68a83.49,83.49,0,0,1-21.62-8.31,79.48,79.48,0,0,1-12.83-8.93c-1.4-1.2-2.4-2.23-3.11-2.89l-.79-.78C587.84,485.36,587.75,485.26,587.76,485.25Z" transform="translate(-8.53 -32)"/><path class="cls-10" d="M604.63,492.52c-6.19-3.3-13.14-1.35-19.07.64-3.94,1.33-8,3.44-12,2.31-2.9-.82-5-3.16-7.26-5.2a45.65,45.65,0,0,0-33.37-12,13.59,13.59,0,0,0-9.16,4.15c-6.08,6.58-1.5,15.15,3.94,20.69A60.08,60.08,0,0,0,564,520.66c11.32,1.18,26.9-.39,38.38-5.3,7.08-3,10.71-11.39,7-18.13A11.59,11.59,0,0,0,604.63,492.52Z" transform="translate(-8.53 -32)"/><g class="cls-14"><path d="M604.61,497.79c-6.19-3.3-13.14-1.35-19.06.65-3.94,1.32-8,3.43-12,2.3-2.89-.81-5-3.16-7.26-5.2a45.63,45.63,0,0,0-33.36-12,13.64,13.64,0,0,0-9.17,4.15,10.69,10.69,0,0,0-2.55,4.61c.9,4,3.57,7.83,6.49,10.81a60.11,60.11,0,0,0,36.29,17.51c11.32,1.18,26.89-.39,38.38-5.3a14.06,14.06,0,0,0,8.17-9.74,12.08,12.08,0,0,0-1.17-3.12A11.61,11.61,0,0,0,604.61,497.79Z" transform="translate(-8.53 -32)"/></g><path class="cls-6" d="M610.49,505.62A11.12,11.12,0,0,0,609,502a12,12,0,0,0-3.31-3.24,13.29,13.29,0,0,0-5.7-2.18c-4.59-.54-9.92,1.4-15.84,3-2.92.77-6.12,2-9.61,1.52a12.82,12.82,0,0,1-5-1.71,31.3,31.3,0,0,1-4.25-3.2,46.1,46.1,0,0,0-25.36-12,26.14,26.14,0,0,0-7.49,0,16.26,16.26,0,0,0-5.8,2,14.74,14.74,0,0,0-3.55,3,33.37,33.37,0,0,0-2.28,3.3,12.67,12.67,0,0,1,2-3.51,14.41,14.41,0,0,1,3.56-3.2,16.8,16.8,0,0,1,5.94-2.21,26.91,26.91,0,0,1,7.68-.06,44.6,44.6,0,0,1,8.58,1.92,49.94,49.94,0,0,1,8.89,3.92,37.12,37.12,0,0,1,4.32,2.82c1.38,1.08,2.68,2.26,4,3.42a31.53,31.53,0,0,0,4.13,3.12,12.08,12.08,0,0,0,4.63,1.61c3.24.43,6.35-.68,9.31-1.45,5.89-1.54,11.31-3.47,16.12-2.84a13.32,13.32,0,0,1,9.2,5.83,8.62,8.62,0,0,1,1.15,2.79A4.38,4.38,0,0,1,610.49,505.62Z" transform="translate(-8.53 -32)"/><path class="cls-6" d="M610.49,505.62A11.12,11.12,0,0,0,609,502a12,12,0,0,0-3.31-3.24,13.29,13.29,0,0,0-5.7-2.18c-4.59-.54-9.92,1.4-15.84,3-2.92.77-6.12,2-9.61,1.52a12.82,12.82,0,0,1-5-1.71,31.3,31.3,0,0,1-4.25-3.2,46.1,46.1,0,0,0-25.36-12,26.14,26.14,0,0,0-7.49,0,16.26,16.26,0,0,0-5.8,2,14.74,14.74,0,0,0-3.55,3,33.37,33.37,0,0,0-2.28,3.3,12.67,12.67,0,0,1,2-3.51,14.41,14.41,0,0,1,3.56-3.2,16.8,16.8,0,0,1,5.94-2.21,26.91,26.91,0,0,1,7.68-.06,44.6,44.6,0,0,1,8.58,1.92,49.94,49.94,0,0,1,8.89,3.92,37.12,37.12,0,0,1,4.32,2.82c1.38,1.08,2.68,2.26,4,3.42a31.53,31.53,0,0,0,4.13,3.12,12.08,12.08,0,0,0,4.63,1.61c3.24.43,6.35-.68,9.31-1.45,5.89-1.54,11.31-3.47,16.12-2.84a13.32,13.32,0,0,1,9.2,5.83,8.62,8.62,0,0,1,1.15,2.79A4.38,4.38,0,0,1,610.49,505.62Z" transform="translate(-8.53 -32)"/><path class="cls-6" d="M533.7,504.13a15.9,15.9,0,0,1,3.17-2.2,89.1,89.1,0,0,1,8.2-4.38,92.17,92.17,0,0,1,8.61-3.52,16.39,16.39,0,0,1,3.71-1,19.62,19.62,0,0,1-3.5,1.59c-2.19.91-5.2,2.19-8.46,3.73s-6.17,3-8.27,4.14A20.69,20.69,0,0,1,533.7,504.13Z" transform="translate(-8.53 -32)"/><path class="cls-6" d="M535.83,510.32c-.1-.2,5.31-3,12.09-6.31s12.35-5.76,12.45-5.56-5.31,3-12.09,6.31S535.93,510.53,535.83,510.32Z" transform="translate(-8.53 -32)"/><path class="cls-6" d="M561.48,513c-.13.19-6.72-3.74-14.74-8.79s-14.41-9.31-14.29-9.5,6.72,3.74,14.73,8.79S561.6,512.81,561.48,513Z" transform="translate(-8.53 -32)"/><path class="cls-6" d="M565.19,506.58a18.71,18.71,0,0,1-3.23-2.16c-1.94-1.39-4.62-3.33-7.62-5.41s-5.75-3.9-7.74-5.23a19.06,19.06,0,0,1-3.15-2.27,17.13,17.13,0,0,1,3.46,1.77c2.08,1.2,4.9,3,7.91,5.05s5.64,4.11,7.5,5.63A17.23,17.23,0,0,1,565.19,506.58Z" transform="translate(-8.53 -32)"/><path class="cls-6" d="M612.51,252a7.28,7.28,0,0,0,.24-3.11,8.72,8.72,0,0,0-1.41-3.35,23.33,23.33,0,0,0-3.37-3.6,20.62,20.62,0,0,1-4-4.7,17.73,17.73,0,0,1-2.34-6.77,17.38,17.38,0,0,1,.77-7.87,47,47,0,0,1,3.52-7.61,37.15,37.15,0,0,0,3.24-7.46,13.76,13.76,0,0,0,.15-7.33c-1.26-4.62-4-8.26-5.41-11.78a14.19,14.19,0,0,1-1.14-8.8,7.8,7.8,0,0,1,.9-2.26c.29-.48.5-.69.53-.67a16.3,16.3,0,0,0-.95,3,14.2,14.2,0,0,0,1.47,8.35c1.43,3.37,4.28,6.92,5.7,11.84a14.65,14.65,0,0,1-.08,7.93,37.4,37.4,0,0,1-3.32,7.73,48.69,48.69,0,0,0-3.46,7.41,16.41,16.41,0,0,0-.79,7.35,16.85,16.85,0,0,0,2.1,6.39,20.54,20.54,0,0,0,3.75,4.59,21.71,21.71,0,0,1,3.34,3.85,8.74,8.74,0,0,1,1.32,3.66,5.19,5.19,0,0,1-.29,2.44C612.74,251.78,612.53,252,612.51,252Z" transform="translate(-8.53 -32)"/><path class="cls-6" d="M677.08,229.58a11.19,11.19,0,0,0,10.26,6.75,13.52,13.52,0,0,0,10.95-6.08,17.11,17.11,0,0,0,2.35-12.5c-.36-1.93-1-3.86-.79-5.82.32-2.77,2.34-5.06,3-7.76,1.24-4.86-2.31-10-6.94-11.95s-10-1.35-14.78,0" transform="translate(-8.53 -32)"/><path class="cls-6" d="M606.57,173.3c-4.47,4.48-2.76,10.37-.68,14.36s4.58,8,4.63,12.53-2.48,8.78-3.74,13.2a24.74,24.74,0,0,0,1.32,17c1.84,4,4.71,7.37,6.57,11.33s2.54,8.93,0,12.49a7.79,7.79,0,0,0,5.5-4.4,15.35,15.35,0,0,0,1.29-7.13c-.19-9.26-4.63-18.26-3.52-27.45.65-5.35,3.16-10.48,2.8-15.86s-3.51-10.11-5.8-15-3.64-11-.59-15.46" transform="translate(-8.53 -32)"/><path class="cls-6" d="M617.53,155.73c-5.47.71-10.89,3.57-13.53,8.41s-1.73,11.68,2.79,14.83c4.25,3,10.29,2,14.66-.81a16.82,16.82,0,0,0,7.09-8.77,12,12,0,0,0-1.7-10.92,9.36,9.36,0,0,0-10.28-3.14" transform="translate(-8.53 -32)"/><path class="cls-6" d="M613.07,155.17c2.41-6.64,8.32-11.66,15-14s14-2.33,20.94-1,13.6,3.82,20.22,6.33c4.81,1.82,9.73,3.7,13.64,7.05a30,30,0,0,1,8.28,12.65c3.3,9,3.44,15.56-.43,24.31-1.69,3.81-.31,8.08-1.82,12s-8.52,8.5-6.35,12.06" transform="translate(-8.53 -32)"/><path class="cls-12" d="M679.07,252l-2.89-85.22a7.36,7.36,0,0,0-7-7.1l-39.52-7.74c-12.56-.65-20,15.17-20.14,27.75-.12,14,.28,31,2.49,41.33,4.44,20.71,20.6,22.5,20.6,22.5s.45,8.08.88,15.38l-.68,32.1Z" transform="translate(-8.53 -32)"/><path class="cls-6" d="M614.93,194.7a2.69,2.69,0,0,0,2.73,2.57,2.56,2.56,0,0,0,2.63-2.57,2.68,2.68,0,0,0-2.73-2.56A2.56,2.56,0,0,0,614.93,194.7Z" transform="translate(-8.53 -32)"/><path class="cls-6" d="M613.64,187c.35.33,2.3-1.28,5.18-1.43s5.07,1.18,5.37.81c.14-.17-.23-.78-1.19-1.4a7.3,7.3,0,0,0-4.32-1.08,7.12,7.12,0,0,0-4.1,1.57C613.73,186.19,613.47,186.84,613.64,187Z" transform="translate(-8.53 -32)"/><path class="cls-6" d="M641.62,194.29a2.67,2.67,0,0,0,2.72,2.56,2.58,2.58,0,0,0,2.64-2.56,2.69,2.69,0,0,0-2.73-2.57A2.56,2.56,0,0,0,641.62,194.29Z" transform="translate(-8.53 -32)"/><path class="cls-6" d="M642.08,187.34c.35.34,2.3-1.28,5.18-1.42s5.08,1.17,5.37.8c.14-.16-.22-.77-1.18-1.39a7.34,7.34,0,0,0-4.32-1.08,7.08,7.08,0,0,0-4.11,1.57C642.18,186.55,641.91,187.2,642.08,187.34Z" transform="translate(-8.53 -32)"/><path class="cls-6" d="M632.77,209.29c0-.17-1.8-.38-4.72-.59-.74,0-1.45-.15-1.6-.64a3.76,3.76,0,0,1,.37-2.21c.6-1.82,1.22-3.73,1.88-5.72,2.59-8.15,4.42-14.83,4.09-14.93s-2.69,6.42-5.28,14.56c-.63,2-1.22,3.92-1.78,5.75a4.2,4.2,0,0,0-.23,2.91,1.85,1.85,0,0,0,1.27,1,4.84,4.84,0,0,0,1.26.11C631,209.54,632.77,209.45,632.77,209.29Z" transform="translate(-8.53 -32)"/><path class="cls-13" d="M632.63,243.51a53.26,53.26,0,0,0,27.57-9s-6.28,14.75-27.29,13.92Z" transform="translate(-8.53 -32)"/><path class="cls-6" d="M640.34,179c.33.77,3.19.25,6.59.47s6.19,1,6.6.27c.18-.34-.33-1.06-1.48-1.76a11.48,11.48,0,0,0-10-.56C640.79,178,640.2,178.61,640.34,179Z" transform="translate(-8.53 -32)"/><path class="cls-6" d="M614.32,179.94c.55.63,2.5-.16,4.88-.32s4.44.2,4.86-.51c.19-.34-.16-1-1.08-1.56a7.12,7.12,0,0,0-7.85.67C614.32,178.94,614.08,179.63,614.32,179.94Z" transform="translate(-8.53 -32)"/><path class="cls-13" d="M634.37,215.85a4.85,4.85,0,0,1,4.25-2,4.42,4.42,0,0,1,3.14,1.47,2.79,2.79,0,0,1,.38,3.19,3.24,3.24,0,0,1-3.47,1.08,10.26,10.26,0,0,1-3.55-1.86,3.09,3.09,0,0,1-.81-.76.89.89,0,0,1,0-1" transform="translate(-8.53 -32)"/><path class="cls-6" d="M640.9,210.86c-.44,0-.29,2.92-2.68,5.13s-5.51,2-5.51,2.46c0,.18.73.53,2,.49a7.25,7.25,0,0,0,4.61-1.89,6.32,6.32,0,0,0,2-4.28C641.46,211.54,641.09,210.84,640.9,210.86Z" transform="translate(-8.53 -32)"/><path class="cls-6" d="M612.71,160.78c1.37,6.55,11.88,7.05,18.37,5.41a21.27,21.27,0,0,0,19.18,7,5.7,5.7,0,0,1,2.87,0,5.83,5.83,0,0,1,2.26,2,18.72,18.72,0,0,0,11.77,6.46,16.78,16.78,0,0,0,13.48,13.07s2.09-1.18.86-9.58-1.3-26-1.3-26L656.74,150l-27.62-3.56S610.4,149.69,612.71,160.78Z" transform="translate(-8.53 -32)"/><path class="cls-10" d="M690.37,191.42a22.32,22.32,0,0,0-1.75-5.79,14.88,14.88,0,0,0-12.65-8.2l-.37,0-.11-.35a18.53,18.53,0,0,0-5.94-9.28c-3-2.4-7.82-3.41-11.55-1.28l-.61.35-.28-.68c-.1-.24-.21-.49-.31-.74a16.45,16.45,0,0,0-14-9.67,18.18,18.18,0,0,0-4,.34,9.47,9.47,0,0,1-4.14,0,7.59,7.59,0,0,1-3.22-2.17,14.46,14.46,0,0,0-2.48-2.18,11.53,11.53,0,0,0-9.53-1.29,21,21,0,0,0-3.36,1.56s.22-.26.71-.68a10.22,10.22,0,0,1,2.5-1.33,11.79,11.79,0,0,1,10.16,1c2,1.11,3.28,3.48,5.5,4.09s4.94-.72,7.95-.53a17.48,17.48,0,0,1,15.13,10.32c.11.28.23.56.33.81l-.89-.32c4.33-2.44,9.57-1.23,12.89,1.42a19.21,19.21,0,0,1,6.22,9.91l-.47-.37a15.72,15.72,0,0,1,8.73,3.31,15,15,0,0,1,4.41,5.67,14.34,14.34,0,0,1,1.21,4.43A4.81,4.81,0,0,1,690.37,191.42Z" transform="translate(-8.53 -32)"/><path class="cls-10" d="M653,171.36a4.49,4.49,0,0,1-1.69.67,17.6,17.6,0,0,1-4.93.55,20.27,20.27,0,0,1-14.67-6.87l.77.14-.67.35a15.78,15.78,0,0,1-9.31,1.39,15,15,0,0,1-7-3.1,14.42,14.42,0,0,1-3.41-3.86c-.61-1.06-.81-1.7-.74-1.74s1.29,2.43,4.68,4.91a15,15,0,0,0,6.66,2.67,15.2,15.2,0,0,0,8.6-1.38l.61-.32.45-.23.32.37a20.39,20.39,0,0,0,13.78,6.81C650.52,172,653,171.13,653,171.36Z" transform="translate(-8.53 -32)"/><path class="cls-10" d="M640.58,159.67c0,.37-3.07.28-6.57,1.31s-6,2.69-6.26,2.4,2.13-2.51,5.91-3.59S640.64,159.36,640.58,159.67Z" transform="translate(-8.53 -32)"/><path class="cls-10" d="M632.63,159.43c-.26.24-1.38-.59-2.78-1.48s-2.61-1.58-2.5-1.91,1.62-.13,3.17.87S632.88,159.22,632.63,159.43Z" transform="translate(-8.53 -32)"/><path class="cls-10" d="M665.77,169.75c-.11.34-2.8-.37-6.12-.06s-5.87,1.39-6,1.07,2.29-2,5.92-2.31S665.91,169.46,665.77,169.75Z" transform="translate(-8.53 -32)"/><path class="cls-10" d="M672.19,180.61c0,.31-3.92.7-8.55-.65s-7.76-3.76-7.57-4,3.49,1.56,7.92,2.82S672.19,180.24,672.19,180.61Z" transform="translate(-8.53 -32)"/><path class="cls-10" d="M686.9,187.8c-.26.25-2.31-1.81-5.61-2.74s-6.12-.38-6.21-.74,2.87-1.55,6.55-.45S687.19,187.64,686.9,187.8Z" transform="translate(-8.53 -32)"/><path class="cls-10" d="M684.8,157.82c-.1,0-.38-.68-1.18-1.75a12.41,12.41,0,0,0-4.42-3.45c-4.3-2.09-11.08-3.4-18.46-3.07a75.18,75.18,0,0,0-18.63,3.55c-4.67,1.46-7.51,2.52-7.58,2.34a7.16,7.16,0,0,1,1.89-1c1.26-.57,3.1-1.34,5.41-2.17a65.46,65.46,0,0,1,18.86-4c7.58-.33,14.49,1.12,18.92,3.53a11.7,11.7,0,0,1,4.41,3.94A4.15,4.15,0,0,1,684.8,157.82Z" transform="translate(-8.53 -32)"/><path class="cls-10" d="M687.13,169c-.23.1-.87-2.53-3.55-5.71a25.42,25.42,0,0,0-13.65-8,47.19,47.19,0,0,0-16.18-.34c-4.16.55-6.73,1-6.77.86s2.46-1,6.64-1.72a42,42,0,0,1,16.58,0,24.67,24.67,0,0,1,14.07,8.68,16.37,16.37,0,0,1,2.45,4.44A4.41,4.41,0,0,1,687.13,169Z" transform="translate(-8.53 -32)"/><path class="cls-10" d="M609.39,182.18c0,.11-1.93-.41-4-2.67a12.47,12.47,0,0,1,4.22-20.07c2.82-1.22,4.78-.93,4.76-.82s-1.85.27-4.38,1.61A12.11,12.11,0,0,0,606,178.94C607.81,181.19,609.51,182,609.39,182.18Z" transform="translate(-8.53 -32)"/><path class="cls-6" d="M696.47,210.17c-.12-.19,2-1.31,5-3.55a15.16,15.16,0,0,0,4.21-4.82,8.31,8.31,0,0,0,.36-7.35,9.83,9.83,0,0,0-5.38-5.22,11.34,11.34,0,0,0-6.27-.4c-3.62.82-5.39,2.56-5.52,2.36s.32-.53,1.18-1.19a12.11,12.11,0,0,1,4.14-2,11.67,11.67,0,0,1,6.87.18,10.69,10.69,0,0,1,6.11,5.8,9.28,9.28,0,0,1-.49,8.38,14.91,14.91,0,0,1-4.69,5,28.49,28.49,0,0,1-4,2.26C697.06,210,696.51,210.25,696.47,210.17Z" transform="translate(-8.53 -32)"/><path class="cls-6" d="M697.44,210.29a6.27,6.27,0,0,1,1,1.8,45.34,45.34,0,0,1,2,5.21,27.58,27.58,0,0,1,1.31,8.22,17.68,17.68,0,0,1-2.81,9.85,12.71,12.71,0,0,1-8.66,5.48,9.14,9.14,0,0,1-7.9-2.69,8.35,8.35,0,0,1-2.45-5.09,3.66,3.66,0,0,1,.26-2c.12,0,0,.74.22,2a8.62,8.62,0,0,0,9.72,6.71,11.82,11.82,0,0,0,7.79-5.05,17.14,17.14,0,0,0,2.69-9.17,29.29,29.29,0,0,0-1-8C698.33,213.07,697.24,210.36,697.44,210.29Z" transform="translate(-8.53 -32)"/><path class="cls-6" d="M665.1,171.2c-2.61,5.19-.62,11.48,2,16.64s6.08,10.26,6.31,16.07c.37,9.72-8.32,18.32-7.12,28a14.55,14.55,0,0,0,11,12.07c-4.6-3.1-5-9.86-3.26-15.12s10.27-19.11,11.5-24.51c4.14-18.15,2.37-20.26-4-26.64" transform="translate(-8.53 -32)"/><path class="cls-10" d="M682.6,184.14c0,.15-1.28.44-3.37.14a14,14,0,0,1-11.48-10.59c-.47-2.06-.28-3.37-.13-3.37s.33,1.25,1,3.12a15.28,15.28,0,0,0,10.8,10C681.32,183.9,682.59,183.94,682.6,184.14Z" transform="translate(-8.53 -32)"/><path class="cls-10" d="M675,238.17s-.25-.1-.65-.41a9.08,9.08,0,0,1-1.53-1.59,12.35,12.35,0,0,1-2.45-7.66,11.66,11.66,0,0,1,1.41-5.5,24.78,24.78,0,0,1,4-5,18.55,18.55,0,0,0,3.92-5.46,15.55,15.55,0,0,0,1.3-7,14.88,14.88,0,0,0-2-6.83A38.11,38.11,0,0,0,675,193.2a40,40,0,0,1-6.58-9.92,22,22,0,0,1-2-7.79,7.92,7.92,0,0,1,.22-2.94c.26-.05-.37,4.33,2.56,10.35a42,42,0,0,0,6.66,9.54,38,38,0,0,1,4.25,5.66,16,16,0,0,1,2.17,7.4,16.59,16.59,0,0,1-1.43,7.57,19.31,19.31,0,0,1-4.22,5.76,24.91,24.91,0,0,0-4,4.7,11,11,0,0,0-1.44,5,12.58,12.58,0,0,0,2,7.35C674.29,237.42,675.12,238.08,675,238.17Z" transform="translate(-8.53 -32)"/><path class="cls-10" d="M684.72,183.45s.56.31,1.33,1.13a14.81,14.81,0,0,1,2.6,4,22.48,22.48,0,0,1,.66,15.5,38.54,38.54,0,0,1-7.85,13.44c-2.61,3-4.45,4.63-4.56,4.52s1.47-2,3.86-5.09a43.22,43.22,0,0,0,7.33-13.24,23.08,23.08,0,0,0-.27-14.78C686.41,185.3,684.52,183.62,684.72,183.45Z" transform="translate(-8.53 -32)"/><path class="cls-6" d="M597.86,338.67l-11.7-21.58a4.44,4.44,0,0,0-3.9-2.32H499a4.44,4.44,0,0,0-3.93,2.37h0L577.6,372.6l36.52,4.2h0a5.3,5.3,0,0,0,.07-4.78Z" transform="translate(-8.53 -32)"/><g class="cls-15"><path d="M685.9,388.05c-14.63-6.37-31.44-7.3-45.19-15.39-5.25-3.1-9.91-7.16-15.28-10s-11.91-4.51-17.58-2.26-10,10.76-7,16.1c1.13,2.85,6.51,5.52,9.56,5.26s5.94-1.52,9-1.9c6.52-.83,12.79,2.39,18.67,5.32a308.57,308.57,0,0,0,39.2,16.32c3.13,1.06,6.42,2.08,9.7,1.59s6.49-3,6.71-6.26C693.9,392.65,689.71,389.71,685.9,388.05Z" transform="translate(-8.53 -32)"/></g><path class="cls-10" d="M614.12,376.8l-29.2-57.17a4.56,4.56,0,0,0-4.06-2.49H494.67L526.78,375l87.34,1.82Z" transform="translate(-8.53 -32)"/><path class="cls-4" d="M546.56,337.71a2.79,2.79,0,1,0-.44-3.93A2.79,2.79,0,0,0,546.56,337.71Z" transform="translate(-8.53 -32)"/><path class="cls-12" d="M622.4,347l-8.67-6.7a18.77,18.77,0,0,0-14.61-7h-4.73l-3.22,3.63s-23.13,1-24,3.86l0,.92v.54l19.78,1.33s-16.83-.06-17.84,0-4.69-.28-4.62,1.69c.06,1.63,2,2.91,4.89,3.33,1.2.18,15.77,1.44,15.77,1.44l-16-.15c-1.8,0-1.57,2.88-.51,3.24.85.29,21.4,6.28,21.4,6.28s-3.46,2.32-6.28,2.12-7.65-3.83-8.66-2.12-.81,2.72-.2,3.13a71.31,71.31,0,0,0,9.47,4.43c2.21.6,20.31,3.47,20.31,3.47l15-1.92Z" transform="translate(-8.53 -32)"/><path class="cls-13" d="M583.3,337.19a63.69,63.69,0,0,1,8.11-.3,66.21,66.21,0,0,1,8.12.21,129.27,129.27,0,0,1-16.23.09Z" transform="translate(-8.53 -32)"/><path class="cls-12" d="M622.4,347l63.67,12.12,6.39-80s17.17-14.45,26.25-4.59a35.58,35.58,0,0,1,9.18,27.32c-.59,5.82-6.37,74.22-11.17,85.8-6.71,16.19-23.9,15.32-28.7,14.14s-73.29-33.57-73.29-33.57Z" transform="translate(-8.53 -32)"/><path class="cls-11" d="M690.11,278.62c-2.24,18.08-6.65,45.74-6.89,63.95,0,.74,43.79,4.4,43.79,4.4s2.28-41.24.63-53.78c-1.87-14.23-12.52-24-12.52-24H701.38Z" transform="translate(-8.53 -32)"/><path class="cls-6" d="M727,347a5,5,0,0,1-.89,0l-2.54-.2-9.35-.85-31-3-.29,0,0-.28c0-.56.08-1.17.12-1.78.89-12.59,1.69-24,2.27-32.3.32-4.09.57-7.41.75-9.78l.24-2.66a5.83,5.83,0,0,1,.12-.93,5.69,5.69,0,0,1,0,.94c0,.66-.07,1.55-.13,2.66-.13,2.37-.33,5.71-.56,9.8-.54,8.32-1.28,19.72-2.1,32.31,0,.61-.08,1.22-.12,1.78l-.27-.31,31,3.2,9.33,1,2.53.31A5.29,5.29,0,0,1,727,347Z" transform="translate(-8.53 -32)"/></svg>